:SAMPLES-PER-SECOND 30
:FULLY-SPECIFIED
:DEGREES
16
root  -72.0536 38.4404 -0.581703 -177.603 83.2242 -176.574
RightUpLeg  -8.84578 2.94192 8.11406
RightLeg  11.5373 -34.9027 -9.73711
RightFoot  -12.9873 0.00231287 -2.84391
RightToes  -1.74624e-010 -1.59028e-015 9.93923e-017
Spine  -6.40065 -1.72389 -0.281403
Spine1  15.5524 -2.92379 2.98625
HEad  -17.4407 -7.572 4.01926
LeftShoulder1  9.93923e-017 0 1.22299e-017
LeftArm  -18.6206 30.3498 -85.0597
LeftForeArm  8.27481 -2.75119 -5.73923
LeftHand  1.17603 11.0179 -10.9778
RightShoulder  1.98785e-016 -4.96962e-017 1.55301e-017
RightArm  19.6984 -37.44 83.7761
RightForeArm  -46.1423 22.2184 -21.9852
RightHand  3.27969 -22.0391 -8.5288
LeftUpLeg  -16.1416 -3.57792 1.07739
LeftLeg  55.7765 -9.17845 4.18892
LeftFoot  6.32095 0.571748 -3.18409
LeftToes  4.87492e-010 -9.21916e-011 1.24689e-011
17
root  -70.3547 38.7762 -0.512654 178.761 84.9406 179.88
RightUpLeg  -4.65791 2.4041 8.36951
RightLeg  8.29676 -32.6252 -7.59105
RightFoot  -12.3582 0.0163285 -2.60983
RightToes  -1.74624e-010 -1.59028e-015 9.93923e-017
Spine  -5.82532 -0.60041 1.61677
Spine1  15.2284 -1.01179 0.285792
HEad  -17.7049 -8.28233 4.39589
LeftShoulder1  9.93923e-017 0 1.22299e-017
LeftArm  -18.7411 36.9217 -81.0255
LeftForeArm  5.84878 -2.26606 -5.53084
LeftHand  1.15342 11.1861 -11.7918
RightShoulder  1.98785e-016 -4.96962e-017 1.55301e-017
RightArm  16.0188 -32.8157 82.9378
RightForeArm  -41.9186 26.2344 -24.3036
RightHand  3.26306 -21.8949 -8.59205
LeftUpLeg  -20.2998 -2.28742 -0.323249
LeftLeg  51.0892 -8.26059 4.46589
LeftFoot  3.79466 0.54614 -3.53537
LeftToes  4.87492e-010 -9.21916e-011 1.24689e-011
18
root  -68.668 38.9633 -0.471308 -178.427 87.0734 -177.311
RightUpLeg  -1.20794 1.98782 8.74902
RightLeg  6.32324 -30.3099 -6.42002
RightFoot  -11.6185 0.0283628 -2.22217
RightToes  -1.74624e-010 -1.59028e-015 9.93923e-017
Spine  -5.25733 0.561934 3.46673
Spine1  15.02 0.774791 -1.8565
HEad  -18.189 -8.50997 4.62701
LeftShoulder1  9.93923e-017 0 1.22299e-017
LeftArm  -15.3708 43.0129 -76.3242
LeftForeArm  1.13805 -2.2834 -5.80599
LeftHand  1.15407 10.4997 -10.7883
RightShoulder  1.98785e-016 -4.96962e-017 1.55301e-017
RightArm  16.0112 -27.5782 81.7161
RightForeArm  -40.2893 29.3533 -26.5727
RightHand  3.28011 -21.8467 -8.77175
LeftUpLeg  -23.8981 -0.946995 -1.08125
LeftLeg  44.4666 -7.21169 4.26603
LeftFoot  2.79404 0.543331 -3.75734
LeftToes  4.87492e-010 -9.21916e-011 1.24689e-011
19
root  -66.9732 38.9686 -0.458242 178.944 89.4808 -179.871
RightUpLeg  1.75184 1.75914 9.38367
RightLeg  5.87731 -28.0219 -6.32697
RightFoot  -11.4679 0.0246233 -1.73523
RightToes  -1.74624e-010 -1.59028e-015 9.93923e-017
Spine  -5.06518 1.78094 5.38764
Spine1  15.5703 2.42296 -3.26036
HEad  -19.023 -8.62644 4.89326
LeftShoulder1  9.93923e-017 0 1.22299e-017
LeftArm  -10.5993 48.065 -71.491
LeftForeArm  -1.67972 -2.90102 -5.90394
LeftHand  1.16231 9.63403 -8.6025
RightShoulder  1.98785e-016 -4.96962e-017 1.55301e-017
RightArm  17.3086 -21.8999 80.2838
RightForeArm  -39.4933 31.4112 -28.1497
RightHand  3.38139 -21.9672 -9.32621
LeftUpLeg  -26.5141 0.241022 -1.07931
LeftLeg  36.0868 -6.27643 3.46003
LeftFoot  2.75252 0.534568 -3.70725
LeftToes  4.87492e-010 -9.21916e-011 1.24689e-011
